<svg width="176" height="136" viewBox="0 0 176 136" fill="none" xmlns="http://www.w3.org/2000/svg">
<path d="M156.75 3.1C154.859 1.8766 152.696 1.13647 150.452 0.944667C148.208 0.752863 145.951 1.11526 143.88 2L76.01 28.73C74.4032 29.3839 72.6848 29.7202 70.95 29.72H27.5C23.8533 29.72 20.3559 31.1687 17.7773 33.7473C15.1987 36.3259 13.75 39.8233 13.75 43.47V44.57H0V77.57H13.75V79C13.8362 82.5892 15.3228 86.0024 17.8921 88.5101C20.4615 91.0178 23.9097 92.421 27.5 92.42L44 127.4C45.1173 129.756 46.8763 131.748 49.075 133.149C51.2737 134.55 53.823 135.303 56.43 135.32H63.36C66.9876 135.291 70.4568 133.83 73.0117 131.254C75.5666 128.679 77.0001 125.198 77 121.57V93.74L143.88 120.47C145.525 121.125 147.28 121.461 149.05 121.46C151.797 121.416 154.472 120.575 156.75 119.04C158.559 117.818 160.052 116.184 161.104 114.271C162.156 112.358 162.737 110.222 162.8 108.04V14.43C162.79 12.1917 162.234 9.98965 161.179 8.01517C160.125 6.04069 158.604 4.35345 156.75 3.1ZM63.25 43.47V79H27.5V43.47H63.25ZM63.25 121.57H56.32L42.79 92.42H63.25V121.57ZM81.07 80.65C79.764 79.9826 78.4021 79.4305 77 79V42.7C78.3887 42.4135 79.7503 42.0087 81.07 41.49L149.05 14.43V107.71L81.07 80.65ZM163.13 47.32V74.82C166.777 74.82 170.274 73.3713 172.853 70.7927C175.431 68.2141 176.88 64.7167 176.88 61.07C176.88 57.4233 175.431 53.9259 172.853 51.3473C170.274 48.7687 166.777 47.32 163.13 47.32Z" fill="#2D1989"/>
</svg>
