<svg width="170" height="148" viewBox="0 0 170 148" fill="none" xmlns="http://www.w3.org/2000/svg">
<path d="M90.4999 6.16666V19H104.983C107.557 19 110.073 19.7773 112.199 21.222L124.644 29.6847C124.945 29.89 125.304 30 125.671 30H155.752C157.211 30 158.61 30.5795 159.641 31.6109C160.672 32.6424 161.252 34.0413 161.252 35.5C161.252 36.9587 160.672 38.3576 159.641 39.3891C158.61 40.4205 157.211 41 155.752 41H144.18L168.864 97.32C169.359 98.4459 169.462 99.7055 169.156 100.897C168.85 102.088 168.153 103.142 167.177 103.891C166.444 104.433 165.689 104.939 164.904 105.401C163.044 106.511 161.108 107.489 159.111 108.327C152.477 111.101 145.356 112.52 138.167 112.5C130.98 112.523 123.861 111.106 117.23 108.335C115.231 107.496 113.295 106.516 111.437 105.401C110.658 104.951 109.907 104.456 109.185 103.92L109.149 103.891C108.172 103.142 107.475 102.088 107.17 100.897C106.864 99.7055 106.967 98.4459 107.462 97.32L132.161 41H125.663C123.089 41 120.574 40.2227 118.447 38.778L106.003 30.3153C105.7 30.1084 105.342 29.9984 104.976 30H90.4999V136.333H123.405C124.863 136.333 126.262 136.913 127.294 137.944C128.325 138.976 128.905 140.375 128.905 141.833C128.905 143.292 128.325 144.691 127.294 145.722C126.262 146.754 124.863 147.333 123.405 147.333H46.5952C45.1365 147.333 43.7376 146.754 42.7061 145.722C41.6747 144.691 41.0952 143.292 41.0952 141.833C41.0952 140.375 41.6747 138.976 42.7061 137.944C43.7376 136.913 45.1365 136.333 46.5952 136.333H79.4999V30H65.0166C64.6505 29.9998 64.2928 30.1097 63.9899 30.3153L51.5526 38.778C49.4259 40.2227 46.9106 41 44.3366 41H37.8392L62.5379 97.32C63.0159 98.4141 63.125 99.6341 62.8485 100.796C62.572 101.957 61.925 102.997 61.0052 103.759C60.4186 104.235 59.8319 104.683 58.7319 105.394C56.8773 106.595 54.9359 107.656 52.9239 108.569C46.3006 111.578 39.108 113.129 31.8332 113.116C24.5582 113.131 17.3651 111.581 10.7426 108.569C8.73053 107.656 6.78917 106.595 4.93457 105.394C4.15031 104.895 3.39385 104.354 2.66856 103.773C1.75614 103.003 1.11433 101.961 0.837195 100.8C0.560061 99.6386 0.662173 98.4191 1.12856 97.32L25.8199 41H14.2552C12.7965 41 11.3976 40.4205 10.3661 39.3891C9.33469 38.3576 8.75523 36.9587 8.75523 35.5C8.75523 34.0413 9.33469 32.6424 10.3661 31.6109C11.3976 30.5795 12.7965 30 14.2552 30H44.3366C44.7032 30 45.0626 29.89 45.3706 29.6847L57.8006 21.222C59.9272 19.77 62.4499 19 65.0239 19H79.4999V6.16666C79.4999 4.70797 80.0794 3.30902 81.1108 2.27757C82.1423 1.24612 83.5412 0.666656 84.9999 0.666656C86.4586 0.666656 87.8575 1.24612 88.889 2.27757C89.9204 3.30902 90.4999 4.70797 90.4999 6.16666ZM13.0819 97.452C18.8535 100.525 25.2947 102.124 31.8332 102.109C38.3718 102.124 44.8129 100.525 50.5846 97.452L31.8332 54.6987L13.0819 97.452ZM119.489 97.276C120.09 97.5693 120.765 97.8847 121.505 98.2C125.392 99.8353 131.075 101.5 138.167 101.5C144.631 101.518 151.017 100.074 156.845 97.276L138.167 54.6913L119.489 97.276Z" fill="#2D1989"/>
</svg>
