<svg width="146" height="146" viewBox="0 0 146 146" fill="none" xmlns="http://www.w3.org/2000/svg">
<path d="M9.17056 137.081L55.8399 90.412M114.609 69.6586L100.639 111.569C100.416 112.24 100.035 112.849 99.5265 113.341C99.0184 113.834 98.3989 114.197 97.7206 114.399L12.0819 139.853C11.3104 140.082 10.4907 140.096 9.71227 139.891C8.93379 139.687 8.22626 139.273 7.66668 138.695C7.10711 138.116 6.71691 137.395 6.53858 136.61C6.36024 135.826 6.40058 135.007 6.65522 134.243L34.4632 50.834C34.6625 50.2351 34.9883 49.6861 35.4185 49.2242C35.8488 48.7624 36.3733 48.3985 36.9566 48.1573L76.4612 31.892C77.2644 31.5603 78.1477 31.4738 78.9999 31.6435C79.8521 31.8131 80.635 32.2313 81.2499 32.8453L113.546 65.1486C114.125 65.7271 114.531 66.4556 114.719 67.2523C114.907 68.0491 114.869 68.8824 114.609 69.6586Z" stroke="#2D1989" stroke-width="11" stroke-linecap="round" stroke-linejoin="round"/>
<path d="M115.474 67.0773L136.213 46.3313C138.963 43.5809 140.507 39.8511 140.507 35.962C140.507 32.0729 138.963 28.3431 136.213 25.5927L120.666 10.0313C119.304 8.66877 117.687 7.5879 115.907 6.85046C114.128 6.11302 112.22 5.73346 110.293 5.73346C108.367 5.73346 106.459 6.11302 104.679 6.85046C102.899 7.5879 101.282 8.66877 99.9203 10.0313L79.1817 30.7773M71.3937 74.8507C70.3719 73.8294 69.159 73.0193 67.8241 72.4668C66.4893 71.9143 65.0587 71.6301 63.6141 71.6304C62.1694 71.6307 60.739 71.9156 59.4044 72.4688C58.0698 73.0219 56.8573 73.8326 55.836 74.8543C54.8147 75.8761 54.0047 77.089 53.4521 78.4238C52.8996 79.7587 52.6154 81.1893 52.6157 82.6339C52.6161 84.0786 52.9009 85.509 53.4541 86.8436C54.0073 88.1782 54.8179 89.3907 55.8397 90.412C57.9032 92.4746 60.7016 93.633 63.6192 93.6323C66.5369 93.6316 69.3347 92.4719 71.3973 90.4083C73.4599 88.3448 74.6183 85.5464 74.6176 82.6287C74.6169 79.7111 73.4572 76.9133 71.3937 74.8507Z" stroke="#2D1989" stroke-width="11" stroke-linecap="round" stroke-linejoin="round"/>
</svg>
