<svg width="124" height="142" viewBox="0 0 124 142" fill="none" xmlns="http://www.w3.org/2000/svg">
<path d="M62.0175 6.4496C63.0551 4.96198 64.3882 3.70416 65.9335 2.75462C67.4788 1.80508 69.2032 1.18419 70.9992 0.930693C72.7951 0.677198 74.624 0.796535 76.3718 1.28126C78.1196 1.76599 79.7487 2.6057 81.1575 3.748L109.934 27.112C112.505 29.1985 114.198 32.175 114.677 35.4514C115.156 38.7277 114.387 42.0645 112.521 44.8H101.785L105.217 39.8808C105.856 38.9696 106.125 37.8502 105.972 36.748C105.818 35.6459 105.253 34.6428 104.39 33.9408L89.5703 21.92L73.7655 44.8H63.0559L82.7151 16.3584L75.6047 10.5856C75.1353 10.2047 74.5924 9.92459 74.0099 9.76279C73.4275 9.60098 72.8179 9.56094 72.2192 9.64516C71.6206 9.72938 71.0458 9.93606 70.5305 10.2523C70.0153 10.5685 69.5708 10.9875 69.2247 11.4832L45.9839 44.7912H35.2479L62.0175 6.4496ZM92.7999 97.6C91.6329 97.6 90.5138 98.0636 89.6886 98.8887C88.8635 99.7139 88.3999 100.833 88.3999 102C88.3999 103.167 88.8635 104.286 89.6886 105.111C90.5138 105.936 91.6329 106.4 92.7999 106.4H101.6C102.767 106.4 103.886 105.936 104.711 105.111C105.536 104.286 106 103.167 106 102C106 100.833 105.536 99.7139 104.711 98.8887C103.886 98.0636 102.767 97.6 101.6 97.6H92.7999ZM13.5999 36H32.6871L26.5271 44.8H13.5999C12.433 44.8 11.3138 45.2636 10.4886 46.0887C9.66347 46.9139 9.1999 48.033 9.1999 49.2C9.1999 50.367 9.66347 51.4861 10.4886 52.3113C11.3138 53.1364 12.433 53.6 13.5999 53.6H106C110.668 53.6 115.144 55.4543 118.445 58.7549C121.746 62.0556 123.6 66.5322 123.6 71.2V124C123.6 128.668 121.746 133.144 118.445 136.445C115.144 139.746 110.668 141.6 106 141.6H22.3999C16.5651 141.6 10.9694 139.282 6.84355 135.156C2.71775 131.031 0.399902 125.435 0.399902 119.6V49.2C0.399902 45.6991 1.79061 42.3417 4.26609 39.8662C6.74157 37.3907 10.099 36 13.5999 36ZM9.1999 119.6C9.1999 123.101 10.5906 126.458 13.0661 128.934C15.5416 131.409 18.899 132.8 22.3999 132.8H106C108.334 132.8 110.572 131.873 112.222 130.223C113.873 128.572 114.8 126.334 114.8 124V71.2C114.8 68.8661 113.873 66.6278 112.222 64.9775C110.572 63.3271 108.334 62.4 106 62.4H13.5999C12.0599 62.4 10.5727 62.136 9.1999 61.652V119.6Z" fill="#2D1989"/>
</svg>
