<svg width="176" height="176" viewBox="0 0 176 176" fill="none" xmlns="http://www.w3.org/2000/svg">
<path d="M176 154.001H156.492C159.242 157.037 161.333 160.417 162.766 164.141C164.198 167.865 164.943 171.818 165 176.001H154C154 172.964 153.427 170.128 152.281 167.493C151.135 164.858 149.56 162.509 147.555 160.446C145.55 158.384 143.229 156.808 140.594 155.719C137.958 154.631 135.094 154.058 132 154.001C128.964 154.001 126.128 154.574 123.492 155.719C120.857 156.865 118.508 158.441 116.445 160.446C114.383 162.451 112.807 164.772 111.719 167.407C110.63 170.042 110.057 172.907 110 176.001H99C99 172.964 98.4271 170.128 97.2813 167.493C96.1354 164.858 94.5599 162.509 92.5547 160.446C90.5495 158.384 88.2292 156.808 85.5938 155.719C82.9583 154.631 80.0938 154.058 77 154.001C73.9636 154.001 71.1276 154.574 68.4922 155.719C65.8568 156.865 63.5078 158.441 61.4453 160.446C59.3828 162.451 57.8073 164.772 56.7188 167.407C55.6302 170.042 55.0573 172.907 55 176.001H44C44 173.022 44.401 170.1 45.2031 167.235C46.0052 164.371 47.1224 161.706 48.5547 159.243C49.987 156.779 51.7917 154.488 53.9688 152.368C56.1458 150.248 58.5234 148.501 61.1016 147.126C59.1537 145.121 57.6641 142.8 56.6328 140.165C55.6016 137.529 55.0573 134.808 55 132.001C55 128.048 55.974 124.41 57.9219 121.087C59.8698 117.764 62.5625 115.1 66 113.094V88.0007C66 86.282 66.3724 84.6492 67.1172 83.1023C67.862 81.5554 68.9505 80.2664 70.3828 79.2351C67.2318 75.0528 63.3646 71.8158 58.7813 69.5242C54.1979 67.2325 49.2708 66.058 44 66.0007C39.4167 66.0007 35.1484 66.8601 31.1953 68.5789C27.2422 70.2976 23.7474 72.6466 20.7109 75.6257C17.6745 78.6049 15.2969 82.1283 13.5781 86.196C11.8594 90.2638 11 94.532 11 99.0007H0C0 94.8184 0.572917 90.7794 1.71875 86.8835C2.86458 82.9877 4.4974 79.2924 6.61719 75.7976C8.73698 72.3028 11.3438 69.2091 14.4375 66.5164C17.5313 63.8236 20.9115 61.5033 24.5781 59.5554C20.2813 56.4617 16.9583 52.5945 14.6094 47.9539C12.2604 43.3132 11.0573 38.3289 11 33.0007C11 28.4747 11.8594 24.2065 13.5781 20.196C15.2969 16.1856 17.6458 12.6908 20.625 9.71167C23.6042 6.7325 27.099 4.3549 31.1094 2.57886C35.1198 0.802816 39.4167 -0.0565592 44 0.000732422C48.5261 0.000732422 52.7943 0.860107 56.8047 2.57886C60.8151 4.29761 64.3099 6.64657 67.2891 9.62573C70.2682 12.6049 72.6458 16.1283 74.4219 20.196C76.1979 24.2638 77.0573 28.532 77 33.0007C77 38.3289 75.8255 43.3132 73.4766 47.9539C71.1276 52.5945 67.7761 56.4903 63.4219 59.6414C67.3177 61.5893 70.8412 64.0242 73.9922 66.946C77.1432 69.8679 79.836 73.2195 82.0703 77.0007H112.75C114.526 77.0007 116.073 76.7429 117.391 76.2273C118.708 75.7117 119.94 75.0242 121.086 74.1648C122.232 73.3054 123.406 72.4174 124.609 71.5007C125.813 70.5841 127.13 69.696 128.563 68.8367C129.995 67.9773 131.656 67.3184 133.547 66.8601C135.438 66.4018 137.672 66.1153 140.25 66.0007H165C166.547 66.0007 167.979 66.2872 169.297 66.8601C170.615 67.433 171.76 68.2065 172.734 69.1804C173.708 70.1544 174.51 71.3289 175.141 72.7039C175.771 74.0789 176.057 75.5111 176 77.0007V154.001ZM44 55.0007C47.0365 55.0007 49.8724 54.4278 52.5078 53.282C55.1432 52.1361 57.4922 50.5606 59.5547 48.5554C61.6172 46.5502 63.1927 44.2299 64.2813 41.5945C65.3698 38.9591 65.9427 36.0945 66 33.0007C66 29.9643 65.4271 27.1283 64.2813 24.4929C63.1354 21.8575 61.5599 19.5085 59.5547 17.446C57.5495 15.3835 55.2292 13.808 52.5938 12.7195C49.9583 11.6309 47.0938 11.058 44 11.0007C40.9635 11.0007 38.1276 11.5736 35.4922 12.7195C32.8568 13.8653 30.5078 15.4408 28.4453 17.446C26.3828 19.4513 24.8073 21.7716 23.7188 24.407C22.6302 27.0424 22.0573 29.907 22 33.0007C22 36.0372 22.5729 38.8731 23.7188 41.5085C24.8646 44.144 26.4401 46.4929 28.4453 48.5554C30.4505 50.6179 32.7708 52.1934 35.4063 53.282C38.0417 54.3705 40.9063 54.9434 44 55.0007ZM77 143.001C78.5469 143.001 79.9792 142.714 81.2969 142.141C82.6146 141.568 83.7604 140.795 84.7344 139.821C85.7083 138.847 86.5104 137.673 87.1406 136.298C87.7708 134.923 88.0573 133.49 88 132.001C88 130.454 87.7136 129.022 87.1406 127.704C86.5677 126.386 85.7943 125.24 84.8203 124.266C83.8464 123.292 82.6719 122.49 81.2969 121.86C79.9219 121.23 78.4896 120.943 77 121.001C75.4531 121.001 74.0208 121.287 72.7031 121.86C71.3854 122.433 70.2396 123.206 69.2656 124.18C68.2917 125.154 67.4896 126.329 66.8594 127.704C66.2292 129.079 65.9427 130.511 66 132.001C66 133.548 66.2865 134.98 66.8594 136.298C67.4323 137.615 68.2057 138.761 69.1797 139.735C70.1537 140.709 71.3281 141.511 72.7031 142.141C74.0781 142.772 75.5104 143.058 77 143.001ZM132 143.001C133.547 143.001 134.979 142.714 136.297 142.141C137.615 141.568 138.76 140.795 139.734 139.821C140.708 138.847 141.51 137.673 142.141 136.298C142.771 134.923 143.057 133.49 143 132.001C143 130.454 142.714 129.022 142.141 127.704C141.568 126.386 140.794 125.24 139.82 124.266C138.846 123.292 137.672 122.49 136.297 121.86C134.922 121.23 133.49 120.943 132 121.001C130.453 121.001 129.021 121.287 127.703 121.86C126.385 122.433 125.24 123.206 124.266 124.18C123.292 125.154 122.49 126.329 121.859 127.704C121.229 129.079 120.943 130.511 121 132.001C121 133.548 121.286 134.98 121.859 136.298C122.432 137.615 123.206 138.761 124.18 139.735C125.154 140.709 126.328 141.511 127.703 142.141C129.078 142.772 130.51 143.058 132 143.001ZM165 99.0007H140.25C137.672 99.0007 135.438 98.7429 133.547 98.2273C131.656 97.7117 129.995 97.0242 128.563 96.1648C127.13 95.3054 125.841 94.4174 124.695 93.5007C123.55 92.5841 122.375 91.696 121.172 90.8367C119.969 89.9773 118.708 89.3184 117.391 88.8601C116.073 88.4018 114.526 88.1153 112.75 88.0007H77V110.001C80.0365 110.001 82.8724 110.574 85.5078 111.719C88.1432 112.865 90.4922 114.441 92.5547 116.446C94.6172 118.451 96.1927 120.772 97.2813 123.407C98.3698 126.042 98.9427 128.907 99 132.001C99 134.808 98.4844 137.529 97.4531 140.165C96.4219 142.8 94.9037 145.121 92.8985 147.126C97.6537 149.761 101.521 153.313 104.5 157.782C107.479 153.313 111.346 149.761 116.102 147.126C114.154 145.121 112.664 142.8 111.633 140.165C110.602 137.529 110.057 134.808 110 132.001C110 128.964 110.573 126.128 111.719 123.493C112.865 120.858 114.44 118.509 116.445 116.446C118.451 114.384 120.771 112.808 123.406 111.719C126.042 110.631 128.906 110.058 132 110.001C135.036 110.001 137.872 110.574 140.508 111.719C143.143 112.865 145.492 114.441 147.555 116.446C149.617 118.451 151.193 120.772 152.281 123.407C153.37 126.042 153.943 128.907 154 132.001C154 133.949 153.742 135.839 153.227 137.673C152.711 139.506 151.938 141.282 150.906 143.001H165V99.0007ZM165 77.0007H140.25C138.932 77.0007 137.758 77.144 136.727 77.4304C135.695 77.7169 134.721 78.0893 133.805 78.5476C132.888 79.0059 132 79.5789 131.141 80.2664C130.281 80.9539 129.365 81.6986 128.391 82.5007C129.307 83.3028 130.195 84.019 131.055 84.6492C131.914 85.2794 132.831 85.8523 133.805 86.3679C134.779 86.8835 135.753 87.2846 136.727 87.571C137.701 87.8575 138.875 88.0007 140.25 88.0007H165V77.0007Z" fill="#2D1989"/>
</svg>
